<mxfile host="app.diagrams.net" modified="2023-08-02T08:06:36.625Z" agent="Mozilla/5.0 (Macintosh; Intel Mac OS X 10_15_7) AppleWebKit/537.36 (KHTML, like Gecko) Chrome/114.0.0.0 Safari/537.36" etag="_WwbOG6edNVtUGWQdIdQ" version="21.6.6" type="github">
  <diagram name="第 1 页" id="r0EgdoSPdt6xpyO0BZJ7">
    <mxGraphModel dx="954" dy="616" grid="1" gridSize="10" guides="1" tooltips="1" connect="1" arrows="1" fold="1" page="1" pageScale="1" pageWidth="1169" pageHeight="827" math="0" shadow="0">
      <root>
        <mxCell id="0" />
        <mxCell id="1" parent="0" />
        <mxCell id="nsCcyaTep8yyENhaGf3R-6" style="edgeStyle=orthogonalEdgeStyle;rounded=0;orthogonalLoop=1;jettySize=auto;html=1;entryX=0;entryY=0.5;entryDx=0;entryDy=0;" edge="1" parent="1" source="nsCcyaTep8yyENhaGf3R-1" target="nsCcyaTep8yyENhaGf3R-2">
          <mxGeometry relative="1" as="geometry" />
        </mxCell>
        <mxCell id="nsCcyaTep8yyENhaGf3R-13" style="edgeStyle=orthogonalEdgeStyle;rounded=0;orthogonalLoop=1;jettySize=auto;html=1;entryX=0;entryY=0.5;entryDx=0;entryDy=0;" edge="1" parent="1" source="nsCcyaTep8yyENhaGf3R-1" target="nsCcyaTep8yyENhaGf3R-5">
          <mxGeometry relative="1" as="geometry">
            <Array as="points">
              <mxPoint x="470" y="515" />
            </Array>
          </mxGeometry>
        </mxCell>
        <mxCell id="nsCcyaTep8yyENhaGf3R-1" value="Data" style="rounded=1;whiteSpace=wrap;html=1;fillColor=#dae8fc;strokeColor=#6c8ebf;" vertex="1" parent="1">
          <mxGeometry x="430" y="290" width="90" height="50" as="geometry" />
        </mxCell>
        <mxCell id="nsCcyaTep8yyENhaGf3R-7" style="edgeStyle=orthogonalEdgeStyle;rounded=0;orthogonalLoop=1;jettySize=auto;html=1;entryX=0;entryY=0.5;entryDx=0;entryDy=0;" edge="1" parent="1" source="nsCcyaTep8yyENhaGf3R-2" target="nsCcyaTep8yyENhaGf3R-3">
          <mxGeometry relative="1" as="geometry" />
        </mxCell>
        <mxCell id="nsCcyaTep8yyENhaGf3R-2" value="Teacher AM" style="rounded=1;whiteSpace=wrap;html=1;fillColor=#fff2cc;strokeColor=#d6b656;" vertex="1" parent="1">
          <mxGeometry x="590" y="290" width="90" height="50" as="geometry" />
        </mxCell>
        <mxCell id="nsCcyaTep8yyENhaGf3R-8" style="edgeStyle=orthogonalEdgeStyle;rounded=0;orthogonalLoop=1;jettySize=auto;html=1;entryX=1;entryY=0.5;entryDx=0;entryDy=0;" edge="1" parent="1" source="nsCcyaTep8yyENhaGf3R-3" target="nsCcyaTep8yyENhaGf3R-5">
          <mxGeometry relative="1" as="geometry">
            <Array as="points">
              <mxPoint x="795" y="515" />
            </Array>
          </mxGeometry>
        </mxCell>
        <mxCell id="nsCcyaTep8yyENhaGf3R-3" value="Pseudo-Label" style="rounded=1;whiteSpace=wrap;html=1;fillColor=#d80073;strokeColor=#A50040;fontColor=#ffffff;" vertex="1" parent="1">
          <mxGeometry x="750" y="290" width="90" height="50" as="geometry" />
        </mxCell>
        <mxCell id="nsCcyaTep8yyENhaGf3R-10" style="edgeStyle=orthogonalEdgeStyle;rounded=0;orthogonalLoop=1;jettySize=auto;html=1;endArrow=none;endFill=0;startArrow=classic;startFill=1;exitX=1;exitY=0.5;exitDx=0;exitDy=0;" edge="1" parent="1" source="nsCcyaTep8yyENhaGf3R-4">
          <mxGeometry relative="1" as="geometry">
            <mxPoint x="795" y="414" as="targetPoint" />
            <mxPoint x="685" y="414" as="sourcePoint" />
          </mxGeometry>
        </mxCell>
        <mxCell id="nsCcyaTep8yyENhaGf3R-11" style="edgeStyle=orthogonalEdgeStyle;rounded=0;orthogonalLoop=1;jettySize=auto;html=1;exitX=0.5;exitY=0;exitDx=0;exitDy=0;entryX=0.5;entryY=1;entryDx=0;entryDy=0;" edge="1" parent="1" source="nsCcyaTep8yyENhaGf3R-4" target="nsCcyaTep8yyENhaGf3R-2">
          <mxGeometry relative="1" as="geometry" />
        </mxCell>
        <mxCell id="nsCcyaTep8yyENhaGf3R-12" style="edgeStyle=orthogonalEdgeStyle;rounded=0;orthogonalLoop=1;jettySize=auto;html=1;exitX=0.5;exitY=1;exitDx=0;exitDy=0;entryX=0.5;entryY=0;entryDx=0;entryDy=0;" edge="1" parent="1" source="nsCcyaTep8yyENhaGf3R-4" target="nsCcyaTep8yyENhaGf3R-5">
          <mxGeometry relative="1" as="geometry" />
        </mxCell>
        <mxCell id="nsCcyaTep8yyENhaGf3R-4" value="LM" style="rounded=1;whiteSpace=wrap;html=1;fillColor=#a20025;strokeColor=#6F0000;fontColor=#ffffff;" vertex="1" parent="1">
          <mxGeometry x="590" y="389" width="90" height="50" as="geometry" />
        </mxCell>
        <mxCell id="nsCcyaTep8yyENhaGf3R-5" value="Student AM" style="rounded=1;whiteSpace=wrap;html=1;fillColor=#a20025;strokeColor=#6F0000;fontColor=#ffffff;" vertex="1" parent="1">
          <mxGeometry x="590" y="490" width="90" height="50" as="geometry" />
        </mxCell>
      </root>
    </mxGraphModel>
  </diagram>
</mxfile>
